<svg width="124" height="35" viewBox="0 0 124 35" fill="none" xmlns="http://www.w3.org/2000/svg">
<path d="M120.73 1.81695C120.73 1.59009 120.776 1.36324 120.867 1.18175C120.957 1.00027 121.048 0.818787 121.23 0.682674C121.366 0.546561 121.547 0.410449 121.729 0.319707C121.91 0.228965 122.137 0.183594 122.364 0.183594C122.591 0.183594 122.818 0.228965 122.999 0.319707C123.181 0.410449 123.362 0.50119 123.498 0.682674C123.634 0.818787 123.77 1.00027 123.861 1.18175C123.952 1.36324 123.997 1.59009 123.997 1.81695C123.997 2.0438 123.952 2.27066 123.861 2.45214C123.77 2.63363 123.68 2.81511 123.498 2.95122C123.362 3.08733 123.181 3.22345 122.999 3.31419C122.818 3.40493 122.591 3.4503 122.364 3.4503C122.137 3.4503 121.91 3.40493 121.729 3.31419C121.547 3.22345 121.366 3.13271 121.23 2.95122C121.093 2.81511 120.957 2.63363 120.867 2.45214C120.776 2.27066 120.73 2.0438 120.73 1.81695ZM121.003 1.81695C121.003 1.99843 121.048 2.17992 121.093 2.31603C121.184 2.49751 121.275 2.63363 121.366 2.72437C121.502 2.86048 121.638 2.95122 121.774 2.99659C121.955 3.08733 122.092 3.08733 122.273 3.08733C122.455 3.08733 122.636 3.04196 122.772 2.99659C122.954 2.90585 123.09 2.81511 123.18 2.72437C123.317 2.58825 123.407 2.45214 123.453 2.31603C123.543 2.13454 123.543 1.99843 123.543 1.81695C123.543 1.63546 123.498 1.45398 123.453 1.31787C123.362 1.13638 123.271 1.00027 123.18 0.909529C123.044 0.773416 122.908 0.682674 122.772 0.637303C122.591 0.546561 122.455 0.546561 122.273 0.546561C122.092 0.546561 121.91 0.591932 121.774 0.637303C121.593 0.728045 121.456 0.818787 121.366 0.909529C121.23 1.04564 121.139 1.18175 121.093 1.31787C121.048 1.45398 121.003 1.63546 121.003 1.81695ZM121.729 0.864158H122.455C122.681 0.864158 122.863 0.909529 122.954 1.00027C123.044 1.09101 123.135 1.22713 123.135 1.40861C123.135 1.59009 123.09 1.68084 122.999 1.77158C122.908 1.86232 122.818 1.90769 122.681 1.90769L123.18 2.679H122.818L122.364 1.90769H122.046V2.679H121.683V0.864158H121.729ZM122.046 1.68084H122.273C122.318 1.68084 122.364 1.68084 122.409 1.68084C122.455 1.68084 122.5 1.68084 122.545 1.63546C122.591 1.63546 122.636 1.59009 122.636 1.54472C122.681 1.49935 122.681 1.45398 122.681 1.40861C122.681 1.36324 122.681 1.31787 122.636 1.2725C122.591 1.22713 122.591 1.22713 122.545 1.18175C122.5 1.18175 122.455 1.13638 122.409 1.13638C122.364 1.13638 122.318 1.13638 122.273 1.13638H122.046V1.68084Z" fill="#497B94"/>
<path d="M44.2366 10.8001C44.2366 12.9325 42.9209 14.8381 39.5634 14.8381H32.168V0.410156H39.3366C42.6487 0.410156 43.8737 2.22499 43.8737 4.13058C43.8737 5.58245 43.057 6.8982 41.469 7.30654C43.2839 7.66951 44.2366 8.9399 44.2366 10.8001ZM34.7541 2.45185V6.48986H38.8375C40.7884 6.48986 41.1968 5.44633 41.1968 4.44817C41.1968 3.49538 40.6977 2.49722 38.8375 2.49722H34.7541V2.45185ZM41.6051 10.5733C41.6051 9.34823 40.8792 8.44082 39.2005 8.44082H34.7995V12.7511H39.1097C40.8792 12.7964 41.6051 11.8436 41.6051 10.5733Z" fill="#497B94"/>
<path d="M48.6369 0.410156V8.98527C48.6369 11.2992 49.9981 12.9325 52.4481 12.9325C54.8527 12.9325 56.2592 11.2992 56.2592 8.98527V0.410156H58.8454V9.16675C58.8454 12.7511 56.5315 15.2465 52.4481 15.2465C48.3647 15.2465 46.0508 12.7511 46.0508 9.16675V0.410156H48.6369Z" fill="#497B94"/>
<path d="M61.1172 0.410156H67.333C71.6886 0.410156 74.547 3.08704 74.547 7.48803C74.547 11.889 71.6432 14.8381 67.333 14.8381H61.1626V0.410156H61.1172ZM67.1515 12.7057C70.1006 12.7057 71.7794 10.5733 71.7794 7.48803C71.7794 4.4028 70.0099 2.49722 67.0608 2.49722H63.658V12.6603H67.1515V12.7057Z" fill="#497B94"/>
<path d="M76.4961 7.66769C76.4961 3.17597 79.3091 0 83.9369 0C87.7935 0 89.9713 2.17781 90.5157 4.5371L87.8842 5.03618C87.5212 3.53893 86.2508 2.17781 83.8916 2.17781C80.9424 2.17781 79.173 4.35561 79.173 7.66769C79.173 10.889 80.8971 13.1122 83.8916 13.1122C86.886 13.1122 88.2018 11.0251 88.2472 9.34642V9.16493H83.7101V7.12324H90.6065V14.8817H88.474V12.5224C87.6573 14.1557 85.8879 15.29 83.3471 15.29C79.1276 15.2446 76.4961 12.114 76.4961 7.66769Z" fill="#497B94"/>
<path d="M103.809 12.7057V14.8381H93.1016V0.410156H103.673V2.54259H95.6877V6.44449H103.355V8.48619H95.6877V12.7057H103.809Z" fill="#497B94"/>
<path d="M118.601 2.63333H113.701V14.8381H111.16V2.63333H106.215V0.410156H118.601V2.63333Z" fill="#497B94"/>
<path d="M44.2366 30.0384C44.2366 32.1708 42.9209 34.0764 39.5634 34.0764H32.168V19.6484H39.3366C42.6487 19.6484 43.8737 21.4633 43.8737 23.3689C43.8737 24.8207 43.057 26.1365 41.469 26.5448C43.2839 26.9078 44.2366 28.1782 44.2366 30.0384ZM34.7541 21.7355V25.7735H38.8375C40.7884 25.7735 41.1968 24.73 41.1968 23.7318C41.1968 22.779 40.6977 21.7809 38.8375 21.7809H34.7541V21.7355ZM41.6051 29.8115C41.6051 28.5865 40.8792 27.6791 39.2005 27.6791H34.7995V31.9893H39.1097C40.8792 32.0347 41.6051 31.0819 41.6051 29.8115Z" fill="#497B94"/>
<path d="M46.4609 19.6484H49.0471V31.8079H56.5787V34.0764H46.4609V19.6484Z" fill="#497B94"/>
<path d="M21.4148 15.6094H5.35352V0.410156H24.1371V12.8872C24.0917 14.3844 22.8667 15.6094 21.4148 15.6094Z" fill="#497B94"/>
<path d="M24.0917 34.0751H5.35352V18.1953H21.5963C23.0028 18.1953 24.1371 19.3296 24.1371 20.7361V34.0751H24.0917Z" fill="#497B94"/>
<path d="M2.58614 0.410156H0V34.0754H2.58614V0.410156Z" fill="#497B94"/>
<path d="M61.3869 19.6484H58.8008V34.0764H61.3869V19.6484Z" fill="#497B94"/>
<path d="M64.1992 19.6484H67.1483L73.6817 29.1763C74.0447 29.7662 74.3623 30.3106 74.5892 30.8551H74.6345C74.6345 30.2652 74.6345 29.6754 74.6345 28.9949V19.6484H76.9938V34.0764H74.1808L67.5113 24.4578C67.1483 23.8679 66.8307 23.3235 66.6492 22.8244H66.6039C66.6039 23.3689 66.6039 23.9587 66.6039 24.6846V34.1218H64.2446V19.6484H64.1992Z" fill="#497B94"/>
<path d="M79.7617 19.6484H85.9775C90.3332 19.6484 93.1915 22.3253 93.1915 26.7263C93.1915 31.1273 90.2878 34.0764 85.9775 34.0764H79.8071V19.6484H79.7617ZM85.7961 31.944C88.7452 31.944 90.4239 29.8115 90.4239 26.7263C90.4239 23.6411 88.6544 21.7355 85.7053 21.7355H82.3025V31.8986H85.7961V31.944Z" fill="#497B94"/>
<path d="M94.418 30.3083L96.5958 29.2648C97.2763 31.0797 98.7736 32.35 101.314 32.35C103.356 32.35 104.626 31.7148 104.626 30.2176C104.626 28.8565 103.81 28.3574 102.086 28.0852L99.2273 27.6768C96.6865 27.2685 95.2346 25.9981 95.2346 23.5481C95.2346 20.9166 97.3671 19.2832 100.997 19.2832C104.082 19.2832 106.305 20.4628 107.213 22.9129L105.171 24.0472C104.536 22.3231 103.129 21.3703 100.861 21.3703C98.9097 21.3703 97.7754 22.0962 97.7754 23.3212C97.7754 24.5009 98.456 25.0453 100.18 25.3629L102.993 25.8166C105.761 26.2703 107.258 27.4046 107.258 29.9454C107.258 32.6676 105.171 34.4825 101.269 34.4825C97.5486 34.4825 95.2346 32.8945 94.418 30.3083Z" fill="#497B94"/>
</svg>
