<svg width="17" height="17" viewBox="0 0 17 17" fill="none" xmlns="http://www.w3.org/2000/svg">
<path d="M6.18737 1.5H3.2407C2.80642 1.5 2.58927 1.5 2.4234 1.58482C2.27749 1.65942 2.15886 1.77847 2.08452 1.92489C2 2.09135 2 2.30925 2 2.74507V5.70211C2 6.13793 2 6.35584 2.08452 6.52229C2.15886 6.66872 2.27749 6.78776 2.4234 6.86237C2.58927 6.94718 2.80642 6.94718 3.2407 6.94718H6.18737C6.62165 6.94718 6.8388 6.94718 7.00467 6.86237C7.15058 6.78776 7.26921 6.66872 7.34355 6.52229C7.42807 6.35584 7.42807 6.13793 7.42807 5.70211V2.74507C7.42807 2.30925 7.42807 2.09135 7.34355 1.92489C7.26921 1.77847 7.15058 1.65942 7.00467 1.58482C6.8388 1.5 6.62165 1.5 6.18737 1.5Z" fill="#C7C0B9"/>
<path d="M13.7593 1.5H10.8126C10.3783 1.5 10.1612 1.5 9.99533 1.58482C9.84942 1.65942 9.73079 1.77847 9.65645 1.92489C9.57193 2.09135 9.57193 2.30925 9.57193 2.74507V5.70211C9.57193 6.13793 9.57193 6.35584 9.65645 6.52229C9.73079 6.66872 9.84942 6.78776 9.99533 6.86237C10.1612 6.94718 10.3783 6.94718 10.8126 6.94718H13.7593C14.1936 6.94718 14.4107 6.94718 14.5766 6.86237C14.7225 6.78776 14.8411 6.66872 14.9155 6.52229C15 6.35584 15 6.13793 15 5.70211V2.74507C15 2.30925 15 2.09135 14.9155 1.92489C14.8411 1.77847 14.7225 1.65942 14.5766 1.58482C14.4107 1.5 14.1936 1.5 13.7593 1.5Z" fill="#C7C0B9"/>
<path d="M13.7137 9.05282H10.767C10.3327 9.05282 10.1156 9.05282 9.94971 9.13763C9.8038 9.21224 9.68518 9.33128 9.61083 9.4777C9.52632 9.64416 9.52632 9.86207 9.52632 10.2979V13.2549C9.52632 13.6907 9.52632 13.9087 9.61083 14.0751C9.68518 14.2215 9.8038 14.3406 9.94971 14.4152C10.1156 14.5 10.3327 14.5 10.767 14.5H13.7137C14.148 14.5 14.3651 14.5 14.531 14.4152C14.6769 14.3406 14.7955 14.2215 14.8699 14.0751C14.9544 13.9087 14.9544 13.6907 14.9544 13.2549V10.2979C14.9544 9.86207 14.9544 9.64416 14.8699 9.4777C14.7955 9.33128 14.6769 9.21224 14.531 9.13763C14.3651 9.05282 14.148 9.05282 13.7137 9.05282Z" fill="#C7C0B9"/>
<path d="M6.18737 9.05282H3.2407C2.80642 9.05282 2.58927 9.05282 2.4234 9.13763C2.27749 9.21224 2.15886 9.33128 2.08452 9.4777C2 9.64416 2 9.86207 2 10.2979V13.2549C2 13.6907 2 13.9087 2.08452 14.0751C2.15886 14.2215 2.27749 14.3406 2.4234 14.4152C2.58927 14.5 2.80642 14.5 3.2407 14.5H6.18737C6.62165 14.5 6.8388 14.5 7.00467 14.4152C7.15058 14.3406 7.26921 14.2215 7.34355 14.0751C7.42807 13.9087 7.42807 13.6907 7.42807 13.2549V10.2979C7.42807 9.86207 7.42807 9.64416 7.34355 9.4777C7.26921 9.33128 7.15058 9.21224 7.00467 9.13763C6.8388 9.05282 6.62165 9.05282 6.18737 9.05282Z" fill="#C7C0B9"/>
<path d="M6.18737 1.5H3.2407C2.80642 1.5 2.58927 1.5 2.4234 1.58482C2.27749 1.65942 2.15886 1.77847 2.08452 1.92489C2 2.09135 2 2.30925 2 2.74507V5.70211C2 6.13793 2 6.35584 2.08452 6.52229C2.15886 6.66872 2.27749 6.78776 2.4234 6.86237C2.58927 6.94718 2.80642 6.94718 3.2407 6.94718H6.18737C6.62165 6.94718 6.8388 6.94718 7.00467 6.86237C7.15058 6.78776 7.26921 6.66872 7.34355 6.52229C7.42807 6.35584 7.42807 6.13793 7.42807 5.70211V2.74507C7.42807 2.30925 7.42807 2.09135 7.34355 1.92489C7.26921 1.77847 7.15058 1.65942 7.00467 1.58482C6.8388 1.5 6.62165 1.5 6.18737 1.5Z" stroke="#C7C0B9" stroke-linecap="round" stroke-linejoin="round"/>
<path d="M13.7593 1.5H10.8126C10.3783 1.5 10.1612 1.5 9.99533 1.58482C9.84942 1.65942 9.73079 1.77847 9.65645 1.92489C9.57193 2.09135 9.57193 2.30925 9.57193 2.74507V5.70211C9.57193 6.13793 9.57193 6.35584 9.65645 6.52229C9.73079 6.66872 9.84942 6.78776 9.99533 6.86237C10.1612 6.94718 10.3783 6.94718 10.8126 6.94718H13.7593C14.1936 6.94718 14.4107 6.94718 14.5766 6.86237C14.7225 6.78776 14.8411 6.66872 14.9155 6.52229C15 6.35584 15 6.13793 15 5.70211V2.74507C15 2.30925 15 2.09135 14.9155 1.92489C14.8411 1.77847 14.7225 1.65942 14.5766 1.58482C14.4107 1.5 14.1936 1.5 13.7593 1.5Z" stroke="#C7C0B9" stroke-linecap="round" stroke-linejoin="round"/>
<path d="M13.7137 9.05282H10.767C10.3327 9.05282 10.1156 9.05282 9.94971 9.13763C9.8038 9.21224 9.68518 9.33128 9.61083 9.4777C9.52632 9.64416 9.52632 9.86207 9.52632 10.2979V13.2549C9.52632 13.6907 9.52632 13.9087 9.61083 14.0751C9.68518 14.2215 9.8038 14.3406 9.94971 14.4152C10.1156 14.5 10.3327 14.5 10.767 14.5H13.7137C14.148 14.5 14.3651 14.5 14.531 14.4152C14.6769 14.3406 14.7955 14.2215 14.8699 14.0751C14.9544 13.9087 14.9544 13.6907 14.9544 13.2549V10.2979C14.9544 9.86207 14.9544 9.64416 14.8699 9.4777C14.7955 9.33128 14.6769 9.21224 14.531 9.13763C14.3651 9.05282 14.148 9.05282 13.7137 9.05282Z" stroke="#C7C0B9" stroke-linecap="round" stroke-linejoin="round"/>
<path d="M6.18737 9.05282H3.2407C2.80642 9.05282 2.58927 9.05282 2.4234 9.13763C2.27749 9.21224 2.15886 9.33128 2.08452 9.4777C2 9.64416 2 9.86207 2 10.2979V13.2549C2 13.6907 2 13.9087 2.08452 14.0751C2.15886 14.2215 2.27749 14.3406 2.4234 14.4152C2.58927 14.5 2.80642 14.5 3.2407 14.5H6.18737C6.62165 14.5 6.8388 14.5 7.00467 14.4152C7.15058 14.3406 7.26921 14.2215 7.34355 14.0751C7.42807 13.9087 7.42807 13.6907 7.42807 13.2549V10.2979C7.42807 9.86207 7.42807 9.64416 7.34355 9.4777C7.26921 9.33128 7.15058 9.21224 7.00467 9.13763C6.8388 9.05282 6.62165 9.05282 6.18737 9.05282Z" stroke="#C7C0B9" stroke-linecap="round" stroke-linejoin="round"/>
</svg>
