<svg width="48" height="48" viewBox="0 0 48 48" fill="none" xmlns="http://www.w3.org/2000/svg">
<rect x="0.75" y="0.75" width="46.5" height="46.5" rx="23.25" stroke="white" stroke-width="1.5"/>
<path d="M15 33.7143V20.5714L23.7619 14L30.3333 18.9286C29.9682 18.9286 29.6032 18.9696 29.2381 19.0518C28.873 19.1339 28.5353 19.248 28.225 19.394L23.7619 16.0536L16.6429 21.3929V32.0714H22.119V33.7143H15ZM23.7619 33.7143V31.6333C23.7619 31.25 23.8577 30.8895 24.0494 30.5518C24.2411 30.2141 24.5012 29.9449 24.8298 29.744C25.6694 29.2512 26.5502 28.877 27.472 28.6214C28.3938 28.3659 29.3476 28.2381 30.3333 28.2381C31.319 28.2381 32.2728 28.3659 33.1946 28.6214C34.1164 28.877 34.9972 29.2512 35.8369 29.744C36.1655 29.9449 36.4256 30.2141 36.6173 30.5518C36.8089 30.8895 36.9048 31.25 36.9048 31.6333V33.7143H23.7619ZM25.4048 32.0714H35.2619V31.2774C34.4952 30.8393 33.6991 30.497 32.8735 30.2506C32.048 30.0042 31.2013 29.881 30.3333 29.881C29.4654 29.881 28.6186 30.0087 27.7932 30.2643C26.9676 30.5199 26.1714 30.8667 25.4048 31.3048V32.0714ZM30.3333 27.1429C29.4206 27.1429 28.6449 26.8234 28.006 26.1845C27.367 25.5456 27.0476 24.7699 27.0476 23.8571C27.0476 22.9444 27.367 22.1687 28.006 21.5298C28.6449 20.8909 29.4206 20.5714 30.3333 20.5714C31.246 20.5714 32.0218 20.8909 32.6607 21.5298C33.2996 22.1687 33.619 22.9444 33.619 23.8571C33.619 24.7699 33.2996 25.5456 32.6607 26.1845C32.0218 26.8234 31.246 27.1429 30.3333 27.1429ZM30.3333 25.5C30.7988 25.5 31.189 25.3426 31.5039 25.0277C31.8188 24.7128 31.9762 24.3226 31.9762 23.8571C31.9762 23.3917 31.8188 23.0015 31.5039 22.6866C31.189 22.3717 30.7988 22.2143 30.3333 22.2143C29.8679 22.2143 29.4777 22.3717 29.1628 22.6866C28.8479 23.0015 28.6905 23.3917 28.6905 23.8571C28.6905 24.3226 28.8479 24.7128 29.1628 25.0277C29.4777 25.3426 29.8679 25.5 30.3333 25.5Z" fill="white"/>
</svg>
