<svg width="17" height="17" viewBox="0 0 17 17" fill="none" xmlns="http://www.w3.org/2000/svg">
<path d="M7.08333 4.39167C7.08333 3.59826 7.08333 3.20156 6.92893 2.89851C6.79311 2.63195 6.57638 2.41523 6.30982 2.27941C6.00678 2.125 5.61007 2.125 4.81667 2.125L4.39167 2.125C3.59826 2.125 3.20156 2.125 2.89851 2.27941C2.63195 2.41523 2.41523 2.63195 2.27941 2.89851C2.125 3.20156 2.125 3.59826 2.125 4.39167L2.125 12.6083C2.125 13.4017 2.125 13.7984 2.27941 14.1015C2.41523 14.368 2.63195 14.5848 2.89851 14.7206C3.20155 14.875 3.59826 14.875 4.39167 14.875L4.81667 14.875C5.61007 14.875 6.00678 14.875 6.30982 14.7206C6.57638 14.5848 6.79311 14.368 6.92893 14.1015C7.08333 13.7984 7.08333 13.4017 7.08333 12.6083L7.08333 4.39167Z" fill="#353A41"/>
<path d="M14.875 4.39167C14.875 3.59826 14.875 3.20156 14.7206 2.89851C14.5848 2.63195 14.368 2.41523 14.1015 2.27941C13.7984 2.125 13.4017 2.125 12.6083 2.125L12.1833 2.125C11.3899 2.125 10.9932 2.125 10.6902 2.27941C10.4236 2.41523 10.2069 2.63195 10.0711 2.89851C9.91667 3.20156 9.91667 3.59826 9.91667 4.39167L9.91667 12.6083C9.91667 13.4017 9.91667 13.7984 10.0711 14.1015C10.2069 14.368 10.4236 14.5848 10.6902 14.7206C10.9932 14.875 11.3899 14.875 12.1833 14.875L12.6083 14.875C13.4017 14.875 13.7984 14.875 14.1015 14.7206C14.368 14.5848 14.5848 14.368 14.7206 14.1015C14.875 13.7984 14.875 13.4017 14.875 12.6083L14.875 4.39167Z" fill="#353A41"/>
<path d="M7.08333 4.39167C7.08333 3.59826 7.08333 3.20156 6.92893 2.89851C6.79311 2.63195 6.57638 2.41523 6.30982 2.27941C6.00678 2.125 5.61007 2.125 4.81667 2.125L4.39167 2.125C3.59826 2.125 3.20156 2.125 2.89851 2.27941C2.63195 2.41523 2.41523 2.63195 2.27941 2.89851C2.125 3.20156 2.125 3.59826 2.125 4.39167L2.125 12.6083C2.125 13.4017 2.125 13.7984 2.27941 14.1015C2.41523 14.368 2.63195 14.5848 2.89851 14.7206C3.20155 14.875 3.59826 14.875 4.39167 14.875L4.81667 14.875C5.61007 14.875 6.00678 14.875 6.30982 14.7206C6.57638 14.5848 6.79311 14.368 6.92893 14.1015C7.08333 13.7984 7.08333 13.4017 7.08333 12.6083L7.08333 4.39167Z" stroke="#353A41" stroke-width="1.41667" stroke-linecap="round" stroke-linejoin="round"/>
<path d="M14.875 4.39167C14.875 3.59826 14.875 3.20156 14.7206 2.89851C14.5848 2.63195 14.368 2.41523 14.1015 2.27941C13.7984 2.125 13.4017 2.125 12.6083 2.125L12.1833 2.125C11.3899 2.125 10.9932 2.125 10.6902 2.27941C10.4236 2.41523 10.2069 2.63195 10.0711 2.89851C9.91667 3.20156 9.91667 3.59826 9.91667 4.39167L9.91667 12.6083C9.91667 13.4017 9.91667 13.7984 10.0711 14.1015C10.2069 14.368 10.4236 14.5848 10.6902 14.7206C10.9932 14.875 11.3899 14.875 12.1833 14.875L12.6083 14.875C13.4017 14.875 13.7984 14.875 14.1015 14.7206C14.368 14.5848 14.5848 14.368 14.7206 14.1015C14.875 13.7984 14.875 13.4017 14.875 12.6083L14.875 4.39167Z" stroke="#353A41" stroke-width="1.41667" stroke-linecap="round" stroke-linejoin="round"/>
</svg>
