<svg width="48" height="48" viewBox="0 0 48 48" fill="none" xmlns="http://www.w3.org/2000/svg">
<rect x="0.75" y="0.75" width="46.5" height="46.5" rx="23.25" stroke="white" stroke-width="1.5"/>
<path d="M24 36L16.6 30.45C16.4125 30.3125 16.2657 30.1375 16.1595 29.925C16.0532 29.7125 16 29.4875 16 29.25V16.5C16 16.1 16.15 15.75 16.45 15.45C16.75 15.15 17.1 15 17.5 15H30.5C30.9 15 31.25 15.15 31.55 15.45C31.85 15.75 32 16.1 32 16.5V29.25C32 29.4875 31.9469 29.7125 31.8407 29.925C31.7344 30.1375 31.5875 30.3125 31.4 30.45L24 36ZM24 34.125L30.5 29.125V16.5H17.5V29.125L24 34.125ZM22.95 28L28.6 22.35L27.525 21.3L22.925 25.9L20.45 23.425L19.4 24.475L22.95 28ZM24 16.5H17.5H30.5H24Z" fill="white"/>
</svg>
